<mxfile host="app.diagrams.net" modified="2024-03-21T17:58:58.662Z" agent="Mozilla/5.0 (X11; Linux x86_64; rv:109.0) Gecko/20100101 Firefox/114.0" etag="rRPobG3AUMQoEnVWKQfU" version="24.0.7" type="device">
  <diagram name="PÃ¡gina-1" id="mkVzRwRzhVgBVhrcnGo0">
    <mxGraphModel dx="2376" dy="1578" grid="1" gridSize="10" guides="1" tooltips="1" connect="1" arrows="1" fold="1" page="1" pageScale="1" pageWidth="827" pageHeight="1169" background="#99c1f1" math="0" shadow="0">
      <root>
        <mxCell id="0" />
        <mxCell id="1" parent="0" />
        <mxCell id="7pArmfMUh-JRox9DeEhV-14" style="edgeStyle=orthogonalEdgeStyle;rounded=0;orthogonalLoop=1;jettySize=auto;html=1;exitX=0.5;exitY=1;exitDx=0;exitDy=0;entryX=0.5;entryY=0;entryDx=0;entryDy=0;" edge="1" parent="1" source="7pArmfMUh-JRox9DeEhV-1" target="7pArmfMUh-JRox9DeEhV-2">
          <mxGeometry relative="1" as="geometry" />
        </mxCell>
        <mxCell id="7pArmfMUh-JRox9DeEhV-1" value="1" style="ellipse;whiteSpace=wrap;html=1;aspect=fixed;" vertex="1" parent="1">
          <mxGeometry x="360" y="40" width="80" height="80" as="geometry" />
        </mxCell>
        <mxCell id="7pArmfMUh-JRox9DeEhV-15" style="edgeStyle=orthogonalEdgeStyle;rounded=0;orthogonalLoop=1;jettySize=auto;html=1;exitX=0.5;exitY=1;exitDx=0;exitDy=0;entryX=0.5;entryY=0;entryDx=0;entryDy=0;" edge="1" parent="1" source="7pArmfMUh-JRox9DeEhV-2" target="7pArmfMUh-JRox9DeEhV-3">
          <mxGeometry relative="1" as="geometry" />
        </mxCell>
        <mxCell id="7pArmfMUh-JRox9DeEhV-2" value="2" style="ellipse;whiteSpace=wrap;html=1;aspect=fixed;" vertex="1" parent="1">
          <mxGeometry x="360" y="150" width="80" height="80" as="geometry" />
        </mxCell>
        <mxCell id="7pArmfMUh-JRox9DeEhV-17" style="edgeStyle=orthogonalEdgeStyle;rounded=0;orthogonalLoop=1;jettySize=auto;html=1;exitX=0.5;exitY=1;exitDx=0;exitDy=0;" edge="1" parent="1" source="7pArmfMUh-JRox9DeEhV-3" target="7pArmfMUh-JRox9DeEhV-4">
          <mxGeometry relative="1" as="geometry" />
        </mxCell>
        <mxCell id="7pArmfMUh-JRox9DeEhV-3" value="3" style="ellipse;whiteSpace=wrap;html=1;aspect=fixed;" vertex="1" parent="1">
          <mxGeometry x="360" y="280" width="80" height="80" as="geometry" />
        </mxCell>
        <mxCell id="7pArmfMUh-JRox9DeEhV-18" style="rounded=0;orthogonalLoop=1;jettySize=auto;html=1;exitX=0;exitY=1;exitDx=0;exitDy=0;entryX=1;entryY=0;entryDx=0;entryDy=0;" edge="1" parent="1" source="7pArmfMUh-JRox9DeEhV-4" target="7pArmfMUh-JRox9DeEhV-6">
          <mxGeometry relative="1" as="geometry" />
        </mxCell>
        <mxCell id="7pArmfMUh-JRox9DeEhV-19" style="rounded=0;orthogonalLoop=1;jettySize=auto;html=1;exitX=1;exitY=1;exitDx=0;exitDy=0;entryX=0;entryY=0;entryDx=0;entryDy=0;" edge="1" parent="1" source="7pArmfMUh-JRox9DeEhV-4" target="7pArmfMUh-JRox9DeEhV-5">
          <mxGeometry relative="1" as="geometry" />
        </mxCell>
        <mxCell id="7pArmfMUh-JRox9DeEhV-4" value="4" style="ellipse;whiteSpace=wrap;html=1;aspect=fixed;" vertex="1" parent="1">
          <mxGeometry x="360" y="400" width="80" height="80" as="geometry" />
        </mxCell>
        <mxCell id="7pArmfMUh-JRox9DeEhV-21" style="rounded=0;orthogonalLoop=1;jettySize=auto;html=1;exitX=0;exitY=1;exitDx=0;exitDy=0;entryX=1;entryY=0;entryDx=0;entryDy=0;" edge="1" parent="1" source="7pArmfMUh-JRox9DeEhV-5" target="7pArmfMUh-JRox9DeEhV-7">
          <mxGeometry relative="1" as="geometry" />
        </mxCell>
        <mxCell id="7pArmfMUh-JRox9DeEhV-5" value="6" style="ellipse;whiteSpace=wrap;html=1;aspect=fixed;" vertex="1" parent="1">
          <mxGeometry x="440" y="520" width="80" height="80" as="geometry" />
        </mxCell>
        <mxCell id="7pArmfMUh-JRox9DeEhV-22" style="rounded=0;orthogonalLoop=1;jettySize=auto;html=1;exitX=1;exitY=1;exitDx=0;exitDy=0;entryX=0;entryY=0;entryDx=0;entryDy=0;" edge="1" parent="1" source="7pArmfMUh-JRox9DeEhV-6" target="7pArmfMUh-JRox9DeEhV-7">
          <mxGeometry relative="1" as="geometry" />
        </mxCell>
        <mxCell id="7pArmfMUh-JRox9DeEhV-6" value="5" style="ellipse;whiteSpace=wrap;html=1;aspect=fixed;" vertex="1" parent="1">
          <mxGeometry x="280" y="520" width="80" height="80" as="geometry" />
        </mxCell>
        <mxCell id="7pArmfMUh-JRox9DeEhV-23" style="edgeStyle=orthogonalEdgeStyle;rounded=0;orthogonalLoop=1;jettySize=auto;html=1;exitX=0.5;exitY=1;exitDx=0;exitDy=0;entryX=0.5;entryY=0;entryDx=0;entryDy=0;" edge="1" parent="1" source="7pArmfMUh-JRox9DeEhV-7" target="7pArmfMUh-JRox9DeEhV-8">
          <mxGeometry relative="1" as="geometry" />
        </mxCell>
        <mxCell id="7pArmfMUh-JRox9DeEhV-29" style="edgeStyle=orthogonalEdgeStyle;rounded=0;orthogonalLoop=1;jettySize=auto;html=1;exitX=1;exitY=0.5;exitDx=0;exitDy=0;entryX=1;entryY=0.5;entryDx=0;entryDy=0;" edge="1" parent="1" source="7pArmfMUh-JRox9DeEhV-7" target="7pArmfMUh-JRox9DeEhV-2">
          <mxGeometry relative="1" as="geometry">
            <Array as="points">
              <mxPoint x="560" y="680" />
              <mxPoint x="560" y="190" />
            </Array>
          </mxGeometry>
        </mxCell>
        <mxCell id="7pArmfMUh-JRox9DeEhV-7" value="7" style="ellipse;whiteSpace=wrap;html=1;aspect=fixed;" vertex="1" parent="1">
          <mxGeometry x="360" y="640" width="80" height="80" as="geometry" />
        </mxCell>
        <mxCell id="7pArmfMUh-JRox9DeEhV-24" style="edgeStyle=orthogonalEdgeStyle;rounded=0;orthogonalLoop=1;jettySize=auto;html=1;exitX=0.5;exitY=1;exitDx=0;exitDy=0;" edge="1" parent="1" source="7pArmfMUh-JRox9DeEhV-8" target="7pArmfMUh-JRox9DeEhV-9">
          <mxGeometry relative="1" as="geometry" />
        </mxCell>
        <mxCell id="7pArmfMUh-JRox9DeEhV-8" value="8" style="ellipse;whiteSpace=wrap;html=1;aspect=fixed;" vertex="1" parent="1">
          <mxGeometry x="360" y="760" width="80" height="80" as="geometry" />
        </mxCell>
        <mxCell id="7pArmfMUh-JRox9DeEhV-25" style="edgeStyle=orthogonalEdgeStyle;rounded=0;orthogonalLoop=1;jettySize=auto;html=1;exitX=0.5;exitY=1;exitDx=0;exitDy=0;" edge="1" parent="1" source="7pArmfMUh-JRox9DeEhV-9" target="7pArmfMUh-JRox9DeEhV-10">
          <mxGeometry relative="1" as="geometry" />
        </mxCell>
        <mxCell id="7pArmfMUh-JRox9DeEhV-9" value="9" style="ellipse;whiteSpace=wrap;html=1;aspect=fixed;" vertex="1" parent="1">
          <mxGeometry x="360" y="880" width="80" height="80" as="geometry" />
        </mxCell>
        <mxCell id="7pArmfMUh-JRox9DeEhV-26" style="edgeStyle=orthogonalEdgeStyle;rounded=0;orthogonalLoop=1;jettySize=auto;html=1;exitX=0.5;exitY=1;exitDx=0;exitDy=0;" edge="1" parent="1" source="7pArmfMUh-JRox9DeEhV-10" target="7pArmfMUh-JRox9DeEhV-11">
          <mxGeometry relative="1" as="geometry" />
        </mxCell>
        <mxCell id="7pArmfMUh-JRox9DeEhV-10" value="10" style="ellipse;whiteSpace=wrap;html=1;aspect=fixed;" vertex="1" parent="1">
          <mxGeometry x="360" y="1000" width="80" height="80" as="geometry" />
        </mxCell>
        <mxCell id="7pArmfMUh-JRox9DeEhV-27" style="edgeStyle=orthogonalEdgeStyle;rounded=0;orthogonalLoop=1;jettySize=auto;html=1;exitX=0.5;exitY=1;exitDx=0;exitDy=0;entryX=0.5;entryY=0;entryDx=0;entryDy=0;" edge="1" parent="1" source="7pArmfMUh-JRox9DeEhV-11" target="7pArmfMUh-JRox9DeEhV-12">
          <mxGeometry relative="1" as="geometry" />
        </mxCell>
        <mxCell id="7pArmfMUh-JRox9DeEhV-32" style="edgeStyle=orthogonalEdgeStyle;rounded=0;orthogonalLoop=1;jettySize=auto;html=1;exitX=0;exitY=0.5;exitDx=0;exitDy=0;entryX=0;entryY=0.5;entryDx=0;entryDy=0;" edge="1" parent="1" source="7pArmfMUh-JRox9DeEhV-11" target="7pArmfMUh-JRox9DeEhV-13">
          <mxGeometry relative="1" as="geometry">
            <Array as="points">
              <mxPoint x="310" y="1160" />
              <mxPoint x="310" y="1400" />
            </Array>
          </mxGeometry>
        </mxCell>
        <mxCell id="7pArmfMUh-JRox9DeEhV-11" value="12" style="ellipse;whiteSpace=wrap;html=1;aspect=fixed;" vertex="1" parent="1">
          <mxGeometry x="360" y="1120" width="80" height="80" as="geometry" />
        </mxCell>
        <mxCell id="7pArmfMUh-JRox9DeEhV-28" style="edgeStyle=orthogonalEdgeStyle;rounded=0;orthogonalLoop=1;jettySize=auto;html=1;exitX=0.5;exitY=1;exitDx=0;exitDy=0;entryX=0.5;entryY=0;entryDx=0;entryDy=0;" edge="1" parent="1" source="7pArmfMUh-JRox9DeEhV-12" target="7pArmfMUh-JRox9DeEhV-13">
          <mxGeometry relative="1" as="geometry" />
        </mxCell>
        <mxCell id="7pArmfMUh-JRox9DeEhV-31" style="edgeStyle=orthogonalEdgeStyle;rounded=0;orthogonalLoop=1;jettySize=auto;html=1;exitX=1;exitY=0.5;exitDx=0;exitDy=0;entryX=1;entryY=0.5;entryDx=0;entryDy=0;" edge="1" parent="1" source="7pArmfMUh-JRox9DeEhV-12" target="7pArmfMUh-JRox9DeEhV-10">
          <mxGeometry relative="1" as="geometry">
            <Array as="points">
              <mxPoint x="480" y="1280" />
              <mxPoint x="480" y="1040" />
            </Array>
          </mxGeometry>
        </mxCell>
        <mxCell id="7pArmfMUh-JRox9DeEhV-12" value="11" style="ellipse;whiteSpace=wrap;html=1;aspect=fixed;" vertex="1" parent="1">
          <mxGeometry x="360" y="1240" width="80" height="80" as="geometry" />
        </mxCell>
        <mxCell id="7pArmfMUh-JRox9DeEhV-13" value="13" style="ellipse;whiteSpace=wrap;html=1;aspect=fixed;" vertex="1" parent="1">
          <mxGeometry x="360" y="1360" width="80" height="80" as="geometry" />
        </mxCell>
        <mxCell id="7pArmfMUh-JRox9DeEhV-33" value="" style="rounded=0;whiteSpace=wrap;html=1;fillColor=none;" vertex="1" parent="1">
          <mxGeometry x="240" width="360" height="1480" as="geometry" />
        </mxCell>
      </root>
    </mxGraphModel>
  </diagram>
</mxfile>
